<?xml version="1.0" encoding="UTF-8" standalone="no"?>
<svg width="640px" height="568px" viewBox="0 0 640 568" version="1.1" xmlns="http://www.w3.org/2000/svg" xmlns:xlink="http://www.w3.org/1999/xlink" xmlns:sketch="http://www.bohemiancoding.com/sketch/ns">
    <!-- Generator: Sketch 3.3.2 (12043) - http://www.bohemiancoding.com/sketch -->
    <title>Bg_Coming Soon@1x</title>
    <desc>Created with Sketch.</desc>
    <defs></defs>
    <g id="Page-1" stroke="none" stroke-width="1" fill="none" fill-rule="evenodd" sketch:type="MSPage">
        <g id="Coming-Soon" sketch:type="MSArtboardGroup">
            <g id="Bg_Coming-Soon" sketch:type="MSLayerGroup">
                <path d="M0,0 L640,0 L640,285.198125 L640,568 L0,568 L0,0 Z" id="Coming-Soon-Copy" fill="#EFB961" sketch:type="MSShapeGroup"></path>
                <g id="Group" transform="translate(20.000000, 12.000000)" fill="#FFFFFF" sketch:type="MSShapeGroup">
                    <g id="Fill-2873-+-Fill-2874" transform="translate(20.000000, 135.000000)">
                        <path d="M28.4733167,13.811592 C28.4733167,14.319432 28.06265,14.731592 27.55665,14.731592 L5.55665,14.731592 C5.05065,14.731592 4.63998333,14.319432 4.63998333,13.811592 L4.63998333,4.611592 C4.63998333,4.103752 5.05065,3.691592 5.55665,3.691592 L27.55665,3.691592 C28.06265,3.691592 28.4733167,4.103752 28.4733167,4.611592 L28.4733167,13.811592 Z M25.7233167,22.091592 L23.8899833,22.091592 C23.3839833,22.091592 22.9733167,21.679432 22.9733167,21.171592 C22.9733167,20.663752 23.3839833,20.251592 23.8899833,20.251592 L25.7233167,20.251592 C26.2293167,20.251592 26.6399833,20.663752 26.6399833,21.171592 C26.6399833,21.679432 26.2293167,22.091592 25.7233167,22.091592 L25.7233167,22.091592 Z M25.7233167,27.611592 L23.8899833,27.611592 C23.3839833,27.611592 22.9733167,27.199432 22.9733167,26.691592 C22.9733167,26.183752 23.3839833,25.771592 23.8899833,25.771592 L25.7233167,25.771592 C26.2293167,25.771592 26.6399833,26.183752 26.6399833,26.691592 C26.6399833,27.199432 26.2293167,27.611592 25.7233167,27.611592 L25.7233167,27.611592 Z M25.7233167,33.131592 L23.8899833,33.131592 C23.3839833,33.131592 22.9733167,32.719432 22.9733167,32.211592 C22.9733167,31.703752 23.3839833,31.291592 23.8899833,31.291592 L25.7233167,31.291592 C26.2293167,31.291592 26.6399833,31.703752 26.6399833,32.211592 C26.6399833,32.719432 26.2293167,33.131592 25.7233167,33.131592 L25.7233167,33.131592 Z M18.3899833,31.291592 L20.2233167,31.291592 C20.7293167,31.291592 21.1399833,31.703752 21.1399833,32.211592 C21.1399833,32.719432 20.7293167,33.131592 20.2233167,33.131592 L18.3899833,33.131592 C17.8839833,33.131592 17.4733167,32.719432 17.4733167,32.211592 C17.4733167,31.703752 17.8839833,31.291592 18.3899833,31.291592 L18.3899833,31.291592 Z M17.4733167,21.171592 C17.4733167,20.663752 17.8839833,20.251592 18.3899833,20.251592 L20.2233167,20.251592 C20.7293167,20.251592 21.1399833,20.663752 21.1399833,21.171592 C21.1399833,21.679432 20.7293167,22.091592 20.2233167,22.091592 L18.3899833,22.091592 C17.8839833,22.091592 17.4733167,21.679432 17.4733167,21.171592 L17.4733167,21.171592 Z M18.3899833,25.771592 L20.2233167,25.771592 C20.7293167,25.771592 21.1399833,26.183752 21.1399833,26.691592 C21.1399833,27.199432 20.7293167,27.611592 20.2233167,27.611592 L18.3899833,27.611592 C17.8839833,27.611592 17.4733167,27.199432 17.4733167,26.691592 C17.4733167,26.183752 17.8839833,25.771592 18.3899833,25.771592 L18.3899833,25.771592 Z M25.7233167,38.651592 L18.3899833,38.651592 C17.8839833,38.651592 17.4733167,38.239432 17.4733167,37.731592 C17.4733167,37.223752 17.8839833,36.811592 18.3899833,36.811592 L25.7233167,36.811592 C26.2293167,36.811592 26.6399833,37.223752 26.6399833,37.731592 C26.6399833,38.239432 26.2293167,38.651592 25.7233167,38.651592 L25.7233167,38.651592 Z M14.7233167,22.091592 L12.8899833,22.091592 C12.3839833,22.091592 11.9733167,21.679432 11.9733167,21.171592 C11.9733167,20.663752 12.3839833,20.251592 12.8899833,20.251592 L14.7233167,20.251592 C15.2293167,20.251592 15.6399833,20.663752 15.6399833,21.171592 C15.6399833,21.679432 15.2293167,22.091592 14.7233167,22.091592 L14.7233167,22.091592 Z M14.7233167,27.611592 L12.8899833,27.611592 C12.3839833,27.611592 11.9733167,27.199432 11.9733167,26.691592 C11.9733167,26.183752 12.3839833,25.771592 12.8899833,25.771592 L14.7233167,25.771592 C15.2293167,25.771592 15.6399833,26.183752 15.6399833,26.691592 C15.6399833,27.199432 15.2293167,27.611592 14.7233167,27.611592 L14.7233167,27.611592 Z M14.7233167,33.131592 L12.8899833,33.131592 C12.3839833,33.131592 11.9733167,32.719432 11.9733167,32.211592 C11.9733167,31.703752 12.3839833,31.291592 12.8899833,31.291592 L14.7233167,31.291592 C15.2293167,31.291592 15.6399833,31.703752 15.6399833,32.211592 C15.6399833,32.719432 15.2293167,33.131592 14.7233167,33.131592 L14.7233167,33.131592 Z M14.7233167,38.651592 L12.8899833,38.651592 C12.3839833,38.651592 11.9733167,38.239432 11.9733167,37.731592 C11.9733167,37.223752 12.3839833,36.811592 12.8899833,36.811592 L14.7233167,36.811592 C15.2293167,36.811592 15.6399833,37.223752 15.6399833,37.731592 C15.6399833,38.239432 15.2293167,38.651592 14.7233167,38.651592 L14.7233167,38.651592 Z M9.22331667,22.091592 L7.38998333,22.091592 C6.88398333,22.091592 6.47331667,21.679432 6.47331667,21.171592 C6.47331667,20.663752 6.88398333,20.251592 7.38998333,20.251592 L9.22331667,20.251592 C9.72931667,20.251592 10.1399833,20.663752 10.1399833,21.171592 C10.1399833,21.679432 9.72931667,22.091592 9.22331667,22.091592 L9.22331667,22.091592 Z M9.22331667,27.611592 L7.38998333,27.611592 C6.88398333,27.611592 6.47331667,27.199432 6.47331667,26.691592 C6.47331667,26.183752 6.88398333,25.771592 7.38998333,25.771592 L9.22331667,25.771592 C9.72931667,25.771592 10.1399833,26.183752 10.1399833,26.691592 C10.1399833,27.199432 9.72931667,27.611592 9.22331667,27.611592 L9.22331667,27.611592 Z M9.22331667,33.131592 L7.38998333,33.131592 C6.88398333,33.131592 6.47331667,32.719432 6.47331667,32.211592 C6.47331667,31.703752 6.88398333,31.291592 7.38998333,31.291592 L9.22331667,31.291592 C9.72931667,31.291592 10.1399833,31.703752 10.1399833,32.211592 C10.1399833,32.719432 9.72931667,33.131592 9.22331667,33.131592 L9.22331667,33.131592 Z M9.22331667,38.651592 L7.38998333,38.651592 C6.88398333,38.651592 6.47331667,38.239432 6.47331667,37.731592 C6.47331667,37.223752 6.88398333,36.811592 7.38998333,36.811592 L9.22331667,36.811592 C9.72931667,36.811592 10.1399833,37.223752 10.1399833,37.731592 C10.1399833,38.239432 9.72931667,38.651592 9.22331667,38.651592 L9.22331667,38.651592 Z M29.3899833,0.011592 L3.72331667,0.011592 C2.20715,0.011592 0.973316667,1.249912 0.973316667,2.771592 L0.973316667,41.411592 C0.973316667,42.933272 2.20715,44.171592 3.72331667,44.171592 L29.3899833,44.171592 C30.90615,44.171592 32.1399833,42.933272 32.1399833,41.411592 L32.1399833,2.771592 C32.1399833,1.249912 30.90615,0.011592 29.3899833,0.011592 L29.3899833,0.011592 Z" id="Fill-2873"></path>
                        <path d="M23.8899833,7.371592 C23.3839833,7.371592 22.9733167,7.783752 22.9733167,8.291592 L22.9733167,10.131592 C22.9733167,10.639432 23.3839833,11.051592 23.8899833,11.051592 C24.3959833,11.051592 24.80665,10.639432 24.80665,10.131592 L24.80665,8.291592 C24.80665,7.783752 24.3959833,7.371592 23.8899833,7.371592" id="Fill-2874"></path>
                    </g>
                    <g id="Fill-2997" transform="translate(67.663775, 348.000000)">
                        <path d="M16.7447332,16.1409042 L2.9165866,16.1409042 L2.9165866,4.61744863 L16.7447332,4.61744863 L16.7447332,16.1409042 Z M13.8638694,19.5979408 L12.7115238,19.5979408 L12.7115238,18.4455953 L13.8638694,18.4455953 L13.8638694,19.5979408 Z M13.8638694,21.9026319 L12.7115238,21.9026319 L12.7115238,20.7502864 L13.8638694,20.7502864 L13.8638694,21.9026319 Z M13.8638694,24.207323 L12.7115238,24.207323 L12.7115238,23.0549775 L13.8638694,23.0549775 L13.8638694,24.207323 Z M10.4068327,19.5979408 L9.25448714,19.5979408 L9.25448714,18.4455953 L10.4068327,18.4455953 L10.4068327,19.5979408 Z M10.4068327,21.9026319 L9.25448714,21.9026319 L9.25448714,20.7502864 L10.4068327,20.7502864 L10.4068327,21.9026319 Z M10.4068327,24.207323 L9.25448714,24.207323 L9.25448714,23.0549775 L10.4068327,23.0549775 L10.4068327,24.207323 Z M6.94979603,19.5979408 L5.79745048,19.5979408 L5.79745048,18.4455953 L6.94979603,18.4455953 L6.94979603,19.5979408 Z M6.94979603,21.9026319 L5.79745048,21.9026319 L5.79745048,20.7502864 L6.94979603,20.7502864 L6.94979603,21.9026319 Z M6.94979603,24.207323 L5.79745048,24.207323 L5.79745048,23.0549775 L6.94979603,23.0549775 L6.94979603,24.207323 Z M6.94979603,2.31275753 L12.7115238,2.31275753 C13.0295712,2.31275753 13.2876966,2.56973058 13.2876966,2.8889303 C13.2876966,3.20697767 13.0295712,3.46510308 12.7115238,3.46510308 L6.94979603,3.46510308 C6.63174866,3.46510308 6.37362325,3.20697767 6.37362325,2.8889303 C6.37362325,2.56973058 6.63174866,2.31275753 6.94979603,2.31275753 L6.94979603,2.31275753 Z M13.8638694,0.00806641887 L5.79745048,0.00806641887 C2.93732882,0.00806641887 0.611895489,2.33349975 0.611895489,5.19362141 L0.611895489,23.6311503 C0.611895489,25.8551772 2.42107801,27.6643597 4.64510492,27.6643597 L15.0162149,27.6643597 C17.2402418,27.6643597 19.0494243,25.8551772 19.0494243,23.6311503 L19.0494243,5.19362141 C19.0494243,2.33349975 16.7228387,0.00806641887 13.8638694,0.00806641887 L13.8638694,0.00806641887 Z"></path>
                    </g>
                    <g id="Fill-2998" transform="translate(239.707408, 398.129625) rotate(45.000000) translate(-239.707408, -398.129625) translate(226.914817, 376.808639)">
                        <path d="M22.2267016,32.4198386 L1.75855493,32.4198386 L1.75855493,8.54033418 L22.2267016,8.54033418 L22.2267016,32.4198386 Z M11.9926283,38.3897147 C11.0510935,38.3897147 10.2869494,37.6255706 10.2869494,36.6840358 C10.2869494,35.7407954 11.0510935,34.9783569 11.9926283,34.9783569 C12.9358687,34.9783569 13.6983071,35.7407954 13.6983071,36.6840358 C13.6983071,37.6255706 12.9358687,38.3897147 11.9926283,38.3897147 L11.9926283,38.3897147 Z M7.72843103,3.42329753 L16.2568255,3.42329753 C16.7275928,3.42329753 17.1096649,3.80366392 17.1096649,4.27613697 C17.1096649,4.74690434 16.7275928,5.12897641 16.2568255,5.12897641 L7.72843103,5.12897641 C7.25766366,5.12897641 6.87559159,4.74690434 6.87559159,4.27613697 C6.87559159,3.80366392 7.25766366,3.42329753 7.72843103,3.42329753 L7.72843103,3.42329753 Z M19.6681832,0.0119397522 L4.31707326,0.0119397522 C1.96664776,0.0119397522 0.0528760455,1.92400578 0.0528760455,4.27613697 L0.0528760455,6.8346553 L0.0528760455,34.1255175 L0.0528760455,36.6840358 C0.0528760455,39.0344613 1.96664776,40.948233 4.31707326,40.948233 L19.6681832,40.948233 C22.0186087,40.948233 23.9323805,39.0344613 23.9323805,36.6840358 L23.9323805,34.1255175 L23.9323805,6.8346553 L23.9323805,4.27613697 C23.9323805,1.92400578 22.0186087,0.0119397522 19.6681832,0.0119397522 L19.6681832,0.0119397522 Z"></path>
                    </g>
                    <g id="Fill-3011-+-Fill-3012-+-Fill-3013" transform="translate(415.750000, 378.247807) rotate(-20.000000) translate(-415.750000, -378.247807) translate(399.000000, 356.208333)">
                        <path d="M27.3834289,27.3409368 L27.3834289,26.4593579 L27.3834289,27.3409368 Z" id="Fill-3011"></path>
                        <path d="M22.0939553,29.9856737 L22.0939553,29.1040947 L22.0939553,29.9856737 Z" id="Fill-3012"></path>
                        <path d="M27.3834289,28.2225158 C26.4119289,28.2225158 25.6202711,27.4308579 25.6202711,26.4593579 C25.6202711,25.4860947 26.4119289,24.6962 27.3834289,24.6962 C28.3549289,24.6962 29.1465868,25.4860947 29.1465868,26.4593579 C29.1465868,27.4308579 28.3549289,28.2225158 27.3834289,28.2225158 L27.3834289,28.2225158 Z M8.87027105,21.1698842 C7.41213947,21.1698842 6.22553421,19.9832789 6.22553421,18.5251474 L6.22553421,7.9462 C6.22553421,6.48806842 7.41213947,5.30146316 8.87027105,5.30146316 L24.7386921,5.30146316 C26.1968237,5.30146316 27.3834289,6.48806842 27.3834289,7.9462 L27.3834289,18.5251474 C27.3834289,19.9832789 26.1968237,21.1698842 24.7386921,21.1698842 L8.87027105,21.1698842 Z M22.0939553,30.8672526 C21.1224553,30.8672526 20.3307974,30.0755947 20.3307974,29.1040947 C20.3307974,28.1308316 21.1224553,27.3409368 22.0939553,27.3409368 C23.0654553,27.3409368 23.8571132,28.1308316 23.8571132,29.1040947 C23.8571132,30.0755947 23.0654553,30.8672526 22.0939553,30.8672526 L22.0939553,30.8672526 Z M19.8441658,36.9448579 L18.0810079,37.8264368 C17.9540605,37.8899105 17.8200605,37.9198842 17.6860605,37.9198842 C17.3634026,37.9198842 17.0530868,37.7418053 16.8979289,37.4332526 C16.6792974,36.9977526 16.8556132,36.4670421 17.2911132,36.2501737 L19.0542711,35.3685947 C19.4897711,35.1499632 20.0187184,35.3262789 20.23735,35.7617789 C20.4559816,36.1972789 20.2796658,36.7279895 19.8441658,36.9448579 L19.8441658,36.9448579 Z M14.5546921,36.9448579 L12.7915342,37.8264368 C12.6645868,37.8899105 12.5305868,37.9198842 12.3965868,37.9198842 C12.0739289,37.9198842 11.7636132,37.7418053 11.6084553,37.4332526 C11.3898237,36.9977526 11.5661395,36.4670421 12.0016395,36.2501737 L13.7647974,35.3685947 C14.2002974,35.1499632 14.7292447,35.3262789 14.9478763,35.7617789 C15.1665079,36.1972789 14.9901921,36.7279895 14.5546921,36.9448579 L14.5546921,36.9448579 Z M9.75185,32.6304105 C9.75185,33.1170421 9.35690263,33.5119895 8.87027105,33.5119895 C8.38363947,33.5119895 7.98869211,33.1170421 7.98869211,32.6304105 L7.98869211,29.9856737 L5.34395526,29.9856737 C4.85732368,29.9856737 4.46237632,29.5907263 4.46237632,29.1040947 C4.46237632,28.6174632 4.85732368,28.2225158 5.34395526,28.2225158 L7.98869211,28.2225158 L7.98869211,25.5777789 C7.98869211,25.0911474 8.38363947,24.6962 8.87027105,24.6962 C9.35690263,24.6962 9.75185,25.0911474 9.75185,25.5777789 L9.75185,28.2225158 L12.3965868,28.2225158 C12.8832184,28.2225158 13.2781658,28.6174632 13.2781658,29.1040947 C13.2781658,29.5907263 12.8832184,29.9856737 12.3965868,29.9856737 L9.75185,29.9856737 L9.75185,32.6304105 Z M28.2650079,0.0119894737 L5.34395526,0.0119894737 C2.91432368,0.0119894737 0.936060526,1.99025263 0.936060526,4.41988421 L0.936060526,37.9198842 C0.936060526,40.3495158 2.91432368,42.3277789 5.34395526,42.3277789 L22.9755342,42.3277789 C25.1565605,42.3277789 28.07635,41.1182526 29.61735,39.5754895 L29.9223763,39.2739895 C31.4651395,37.7312263 32.6729026,34.8132 32.6729026,32.6304105 L32.6729026,4.41988421 C32.6729026,1.99025263 30.6946395,0.0119894737 28.2650079,0.0119894737 L28.2650079,0.0119894737 Z" id="Fill-3013"></path>
                    </g>
                    <g id="Fill-3031-+-Fill-3032-+-Fill-3033" transform="translate(142.500000, 126.887302)">
                        <path d="M11.531,11.007 L2.531,11.007 L2.531,1.007 L11.531,1.007 L11.531,11.007 Z M13.031,11.007 L12.531,11.007 L12.531,0.507 C12.531,0.23 12.307,0.007 12.031,0.007 L2.031,0.007 C1.755,0.007 1.531,0.23 1.531,0.507 L1.531,11.007 L1.031,11.007 C0.755,11.007 0.531,11.23 0.531,11.507 L0.531,19.507 C0.531,20.885 1.653,22.007 3.031,22.007 L4.531,22.007 L4.531,23.507 C4.531,23.783 4.755,24.007 5.031,24.007 L9.031,24.007 C9.307,24.007 9.531,23.783 9.531,23.507 L9.531,22.007 L11.031,22.007 C12.409,22.007 13.531,20.885 13.531,19.507 L13.531,11.507 C13.531,11.23 13.307,11.007 13.031,11.007 L13.031,11.007 Z" id="Fill-3031"></path>
                        <path d="M4.0309,6.0068 L6.0309,6.0068 C6.3069,6.0068 6.5309,5.7828 6.5309,5.5068 L6.5309,3.5068 C6.5309,3.2308 6.3069,3.0068 6.0309,3.0068 L4.0309,3.0068 C3.7549,3.0068 3.5309,3.2308 3.5309,3.5068 L3.5309,5.5068 C3.5309,5.7828 3.7549,6.0068 4.0309,6.0068" id="Fill-3032"></path>
                        <path d="M8.0309,6.0068 L10.0309,6.0068 C10.3069,6.0068 10.5309,5.7828 10.5309,5.5068 L10.5309,3.5068 C10.5309,3.2308 10.3069,3.0068 10.0309,3.0068 L8.0309,3.0068 C7.7549,3.0068 7.5309,3.2308 7.5309,3.5068 L7.5309,5.5068 C7.5309,5.7828 7.7549,6.0068 8.0309,6.0068" id="Fill-3033"></path>
                    </g>
                    <g id="Fill-3053" transform="translate(238.500000, 126.887302) rotate(-315.000000) translate(-238.500000, -126.887302) translate(216.500000, 104.887302)">
                        <path d="M17.65456,11.451968 C20.07984,11.451968 22.05456,13.426688 22.05456,15.851968 L22.05456,18.491968 L13.25456,18.491968 L13.25456,11.451968 L17.65456,11.451968 Z M11.49456,18.491968 L2.69456,18.491968 L2.69456,15.851968 C2.69456,13.426688 4.66928,11.451968 7.09456,11.451968 L11.49456,11.451968 L11.49456,18.491968 Z M42.29456,2.651968 C41.8088,2.651968 41.41456,3.046208 41.41456,3.531968 L41.41456,14.091968 C41.41456,18.613408 38.67776,20.672608 36.13456,20.672608 C33.59136,20.672608 30.85456,18.613408 30.85456,14.091968 L30.85456,9.691968 C30.85456,3.480928 25.98464,0.231968 21.17456,0.231968 C16.36448,0.231968 11.49456,3.480928 11.49456,9.691968 L7.09456,9.691968 C3.69776,9.691968 0.93456,12.455168 0.93456,15.851968 L0.93456,18.491968 L0.93456,30.811968 C0.93456,37.119808 6.06672,42.251968 12.37456,42.251968 C18.6824,42.251968 23.81456,37.119808 23.81456,30.811968 L23.81456,18.491968 L23.81456,15.851968 C23.81456,12.455168 21.05136,9.691968 17.65456,9.691968 L13.25456,9.691968 C13.25456,4.401408 17.36064,1.991968 21.17456,1.991968 C23.2672,1.991968 25.212,2.676608 26.64816,3.922688 C28.24976,5.309568 29.09456,7.303648 29.09456,9.691968 L29.09456,14.091968 C29.09456,19.567328 32.63568,22.432608 36.13456,22.432608 C39.63344,22.432608 43.17456,19.567328 43.17456,14.091968 L43.17456,3.531968 C43.17456,3.046208 42.78032,2.651968 42.29456,2.651968 L42.29456,2.651968 Z"></path>
                    </g>
                    <g transform="translate(338.000000, 136.735572)">
                        <path d="M25.36798,44.01496 C24.75858,44.01496 24.26798,43.51996 24.26798,42.91496 C24.26798,42.30776 24.75858,41.81496 25.36798,41.81496 C25.97518,41.81496 26.46798,42.30776 26.46798,42.91496 C26.46798,43.51996 25.97518,44.01496 25.36798,44.01496 L25.36798,44.01496 Z M22.06798,44.01496 L15.46798,44.01496 L15.46798,41.81496 L22.06798,41.81496 L22.06798,44.01496 Z M12.16798,44.01496 C11.55858,44.01496 11.06798,43.51996 11.06798,42.91496 C11.06798,42.30776 11.55858,41.81496 12.16798,41.81496 C12.77518,41.81496 13.26798,42.30776 13.26798,42.91496 C13.26798,43.51996 12.77518,44.01496 12.16798,44.01496 L12.16798,44.01496 Z M34.17458,42.84456 L31.93718,39.61496 L5.56798,39.61496 L5.56798,4.41496 L34.16798,4.41496 L34.16798,27.38076 L34.17238,27.38076 C35.67718,27.38076 37.09178,27.96816 38.15878,29.03076 C38.17858,29.05276 38.26658,29.14076 38.28638,29.16496 L38.56798,29.49716 L38.56798,14.07296 L38.56798,4.41496 C38.56798,1.98836 36.59458,0.01496 34.16798,0.01496 L5.56798,0.01496 C3.14138,0.01496 1.16798,1.98836 1.16798,4.41496 L1.16798,44.01496 C1.16798,46.43936 3.14138,48.41716 5.56578,48.42596 L5.56798,48.42596 L35.63318,48.41496 C34.78618,46.85736 34.17458,45.29096 34.17458,44.01496 L34.17458,42.84456 Z" id="Fill-3054"></path>
                        <path d="M53.6448,50.90822 L50.5098,46.72822 L47.5948,42.84082 L47.3748,42.54822 L47.3748,42.18082 L47.3748,27.51562 C47.3748,23.41922 47.003,21.78022 42.581,18.00502 L42.5788,18.00282 C42.251,17.72782 41.7934,17.66622 41.4084,17.84442 C41.0168,18.02482 40.7682,18.41422 40.7682,18.84322 L40.7682,32.50302 L40.7682,35.51042 L38.5682,32.91002 L38.5682,32.90562 L36.6058,30.58462 C35.6532,29.64082 34.1902,29.39222 32.967,29.82782 C32.934,29.84102 32.901,29.84542 32.868,29.85642 C32.8108,29.88062 32.758,29.91582 32.7008,29.94222 C32.3532,30.10062 32.0254,30.30742 31.7482,30.58682 C31.6448,30.69022 31.5656,30.81122 31.4798,30.92782 C31.229,31.27542 31.0552,31.68022 30.9628,32.13122 C30.8924,32.47662 30.8506,32.83962 30.8792,33.22682 C30.921,33.81202 31.0794,34.37302 31.317,34.82842 C31.3302,34.85262 31.339,34.88122 31.3522,34.90542 C31.405,34.99782 31.4666,35.07702 31.526,35.15842 C31.5722,35.22442 31.614,35.29922 31.6646,35.35642 L34.1682,38.97102 L34.1682,38.97542 L36.179,41.87502 C36.3066,42.05982 36.3748,42.27762 36.3748,42.50202 L36.3748,44.01562 C36.3748,44.98142 37.0348,46.54342 38.181,48.41342 L38.1854,48.41342 C38.8762,49.53322 39.633,50.58922 40.2094,51.35922 C40.4712,51.70462 40.733,52.05002 41.0146,52.40202 C41.2236,52.66162 41.5404,52.81562 41.8748,52.81562 L52.8748,52.81562 L52.8968,52.81562 C53.504,52.81562 53.9968,52.32282 53.9968,51.71562 C53.9968,51.39662 53.8604,51.10842 53.6448,50.90822" id="Fill-3055"></path>
                        <path d="M12.1682,30.8154 L27.5682,30.8154 L27.5682,28.6154 L12.1682,28.6154 L12.1682,30.8154 Z" id="Fill-3056"></path>
                        <path d="M27.5682,24.2154 L12.1682,24.2154 L12.1682,26.4154 L27.5682,26.4154 L27.5682,24.2154 Z" id="Fill-3057"></path>
                        <path d="M27.5682,19.8154 L12.1682,19.8154 L12.1682,22.0154 L27.5682,22.0154 L27.5682,19.8154 Z" id="Fill-3058"></path>
                        <path d="M27.5682,15.4154 L12.1682,15.4154 L12.1682,17.6154 L27.5682,17.6154 L27.5682,15.4154 Z" id="Fill-3059"></path>
                        <path d="M12.1682,13.2154 L20.9682,13.2154 L20.9682,11.0154 L12.1682,11.0154 L12.1682,13.2154 Z" id="Fill-3060"></path>
                    </g>
                    <g id="Fill-3073-+-Fill-3074" transform="translate(461.692371, 473.036653) rotate(-60.000000) translate(-461.692371, -473.036653) translate(445.067371, 448.588124)">
                        <path d="M28.4209265,21.5283971 L4.95033824,21.5283971 L4.95033824,3.92545588 L28.4209265,3.92545588 L28.4209265,21.5283971 Z M16.6856324,43.0431029 C11.2932647,43.0431029 6.90622059,38.6560588 6.90622059,33.2636912 C6.90622059,27.8713235 11.2932647,23.4842794 16.6856324,23.4842794 C22.078,23.4842794 26.4650441,27.8713235 26.4650441,33.2636912 C26.4650441,38.6560588 22.078,43.0431029 16.6856324,43.0431029 L16.6856324,43.0431029 Z M27.4429853,0.0136911765 L5.92827941,0.0136911765 C3.23307353,0.0136911765 1.03857353,2.20623529 1.03857353,4.90339706 L1.03857353,42.0651618 C1.03857353,44.7603676 3.23307353,46.9548676 5.92827941,46.9548676 L27.4429853,46.9548676 C30.1381912,46.9548676 32.3326912,44.7603676 32.3326912,42.0651618 L32.3326912,4.90339706 C32.3326912,2.20623529 30.1381912,0.0136911765 27.4429853,0.0136911765 L27.4429853,0.0136911765 Z" id="Fill-3073"></path>
                        <path d="M16.6854368,27.3956529 C13.4504074,27.3956529 10.8177897,30.0282706 10.8177897,33.2633 C10.8177897,36.4983294 13.4504074,39.1309471 16.6854368,39.1309471 C19.9204662,39.1309471 22.5530838,36.4983294 22.5530838,33.2633 C22.5530838,30.0282706 19.9204662,27.3956529 16.6854368,27.3956529" id="Fill-3074"></path>
                    </g>
                    <path d="M180.277778,527.027238 C180.277778,527.678905 179.748889,528.207794 179.097222,528.207794 L148.402778,528.207794 C147.751111,528.207794 147.222222,527.678905 147.222222,527.027238 L147.222222,489.24946 C147.222222,488.597794 147.751111,488.068905 148.402778,488.068905 L179.097222,488.068905 C179.748889,488.068905 180.277778,488.597794 180.277778,489.24946 L180.277778,527.027238 Z M163.75,534.110572 C162.444306,534.110572 161.388889,533.052794 161.388889,531.74946 C161.388889,530.443766 162.444306,529.388349 163.75,529.388349 C165.053333,529.388349 166.111111,530.443766 166.111111,531.74946 C166.111111,533.052794 165.053333,534.110572 163.75,534.110572 L163.75,534.110572 Z M163.75,484.527238 C164.401667,484.527238 164.930556,485.056127 164.930556,485.707794 C164.930556,486.35946 164.401667,486.888349 163.75,486.888349 C163.098333,486.888349 162.569444,486.35946 162.569444,485.707794 C162.569444,485.056127 163.098333,484.527238 163.75,484.527238 L163.75,484.527238 Z M179.097222,480.985572 L148.402778,480.985572 C145.149167,480.985572 142.5,483.634738 142.5,486.888349 L142.5,531.74946 C142.5,535.003072 145.149167,537.652238 148.402778,537.652238 L179.097222,537.652238 C182.350833,537.652238 185,535.003072 185,531.74946 L185,486.888349 C185,483.634738 182.350833,480.985572 179.097222,480.985572 L179.097222,480.985572 Z" id="Fill-3075" opacity="0.1"></path>
                    <g id="Fill-3097-+-Fill-3098" transform="translate(159.500000, 192.500000)">
                        <path d="M25.563036,27.553872 C23.875956,27.553872 22.503036,26.180952 22.503036,24.493872 C22.503036,22.806792 23.875956,21.433872 25.563036,21.433872 C27.250116,21.433872 28.623036,22.806792 28.623036,24.493872 C28.623036,26.180952 27.250116,27.553872 25.563036,27.553872 M25.563036,18.373872 C22.188876,18.373872 19.443036,21.119712 19.443036,24.493872 C19.443036,27.868032 22.188876,30.613872 25.563036,30.613872 C28.937196,30.613872 31.683036,27.868032 31.683036,24.493872 C31.683036,21.119712 28.937196,18.373872 25.563036,18.373872" id="Fill-3097"></path>
                        <path d="M25.563036,32.653872 C21.062796,32.653872 17.403036,28.994112 17.403036,24.493872 C17.403036,19.993632 21.062796,16.333872 25.563036,16.333872 C30.063276,16.333872 33.723036,19.993632 33.723036,24.493872 C33.723036,28.994112 30.063276,32.653872 25.563036,32.653872 M25.563036,0.013872 C12.064356,0.013872 1.083036,10.995192 1.083036,24.493872 C1.083036,37.992552 12.064356,48.973872 25.563036,48.973872 C39.061716,48.973872 50.043036,37.992552 50.043036,24.493872 C50.043036,10.995192 39.061716,0.013872 25.563036,0.013872" id="Fill-3098"></path>
                    </g>
                    <g id="Fill-3103-+-Fill-3104" transform="translate(461.838959, 32.668013) rotate(40.000000) translate(-461.838959, -32.668013) translate(442.838959, 9.668013)">
                        <path d="M19.062,30.0136 C16.294,30.0136 13.748,29.0616 11.716,27.4816 L14.122,25.0736 C14.406,24.7916 14.562,24.4136 14.562,24.0136 C14.562,23.6136 14.406,23.2356 14.122,22.9536 C13.556,22.3876 12.568,22.3876 12.002,22.9536 L9.594,25.3596 C8.014,23.3276 7.062,20.7816 7.062,18.0136 C7.062,11.3956 12.444,6.0136 19.062,6.0136 C25.68,6.0136 31.062,11.3956 31.062,18.0136 C31.062,24.6296 25.68,30.0136 19.062,30.0136 L19.062,30.0136 Z M30.062,38.0136 C29.51,38.0136 29.062,37.5636 29.062,37.0136 C29.062,36.4616 29.51,36.0136 30.062,36.0136 C30.614,36.0136 31.062,36.4616 31.062,37.0136 C31.062,37.5636 30.614,38.0136 30.062,38.0136 L30.062,38.0136 Z M18.562,39.0136 C18.562,39.2896 18.338,39.5136 18.062,39.5136 L6.062,39.5136 C5.786,39.5136 5.562,39.2896 5.562,39.0136 L5.562,31.0136 C5.562,30.9696 5.574,30.9156 5.614,30.8076 C5.642,30.7476 5.672,30.6996 5.704,30.6676 L5.774,30.5936 L12.708,23.6596 C12.898,23.4716 13.226,23.4716 13.416,23.6596 C13.51,23.7556 13.562,23.8796 13.562,24.0136 C13.562,24.1456 13.51,24.2716 13.416,24.3676 L6.906,30.8756 L18.286,36.5656 C18.456,36.6516 18.562,36.8216 18.562,37.0136 L18.562,39.0136 Z M32.062,0.0136 L6.062,0.0136 C3.306,0.0136 1.062,2.2576 1.062,5.0136 L1.062,39.0136 C1.062,41.7696 3.306,44.0136 6.062,44.0136 L32.062,44.0136 C34.818,44.0136 37.062,41.7696 37.062,39.0136 L37.062,5.0136 C37.062,2.2576 34.818,0.0136 32.062,0.0136 L32.062,0.0136 Z" id="Fill-3103"></path>
                        <path d="M19.062,16.0136 C17.956,16.0136 17.062,16.9076 17.062,18.0136 C17.062,19.1176 17.956,20.0136 19.062,20.0136 C20.166,20.0136 21.062,19.1176 21.062,18.0136 C21.062,16.9076 20.166,16.0136 19.062,16.0136" id="Fill-3104"></path>
                    </g>
                    <g id="Fill-3124" transform="translate(38.500000, 480.985572) rotate(36.000000) translate(-38.500000, -480.985572) translate(13.750000, 456.235572)">
                        <path d="M43.04124,26.163522 C42.66702,26.537742 42.17004,26.743662 41.64138,26.743662 C41.11272,26.743662 40.61574,26.537742 40.24152,26.163522 C39.8673,25.789302 39.66138,25.292322 39.66138,24.763662 C39.66138,24.235002 39.8673,23.738022 40.24152,23.363802 C40.98996,22.615362 42.2928,22.615362 43.04124,23.363802 C43.41546,23.738022 43.62138,24.235002 43.62138,24.763662 C43.62138,25.292322 43.41546,25.789302 43.04124,26.163522 L43.04124,26.163522 Z M39.08124,30.123522 C38.70702,30.497742 38.21004,30.703662 37.68138,30.703662 C37.15272,30.703662 36.65574,30.497742 36.28152,30.123522 C35.9073,29.749302 35.70138,29.252322 35.70138,28.723662 C35.70138,28.195002 35.9073,27.698022 36.28152,27.323802 C37.02996,26.575362 38.3328,26.575362 39.08124,27.323802 C39.45546,27.698022 39.66138,28.195002 39.66138,28.723662 C39.66138,29.252322 39.45546,29.749302 39.08124,30.123522 L39.08124,30.123522 Z M35.12124,26.163522 C34.74702,26.537742 34.25004,26.743662 33.72138,26.743662 C33.19272,26.743662 32.69574,26.537742 32.32152,26.163522 C31.9473,25.793262 31.74138,25.296282 31.7394,24.765642 C31.7394,24.236982 31.94532,23.738022 32.32152,23.363802 C33.06204,22.617342 34.37082,22.615362 35.11926,23.361822 C35.89344,24.136002 35.89344,25.391322 35.12124,26.163522 L35.12124,26.163522 Z M28.77138,29.713662 L26.79138,29.713662 C26.2449,29.713662 25.80138,29.270142 25.80138,28.723662 C25.80138,28.177182 26.2449,27.733662 26.79138,27.733662 L28.77138,27.733662 C29.31786,27.733662 29.76138,28.177182 29.76138,28.723662 C29.76138,29.270142 29.31786,29.713662 28.77138,29.713662 L28.77138,29.713662 Z M22.83138,29.713662 L20.85138,29.713662 C20.3049,29.713662 19.86138,29.270142 19.86138,28.723662 C19.86138,28.177182 20.3049,27.733662 20.85138,27.733662 L22.83138,27.733662 C23.37786,27.733662 23.82138,28.177182 23.82138,28.723662 C23.82138,29.270142 23.37786,29.713662 22.83138,29.713662 L22.83138,29.713662 Z M15.90138,25.753662 L12.93138,25.753662 L12.93138,28.723662 C12.93138,29.270142 12.48786,29.713662 11.94138,29.713662 C11.3949,29.713662 10.95138,29.270142 10.95138,28.723662 L10.95138,25.753662 L7.98138,25.753662 C7.4349,25.753662 6.99138,25.310142 6.99138,24.763662 C6.99138,24.217182 7.4349,23.773662 7.98138,23.773662 L10.95138,23.773662 L10.95138,20.803662 C10.95138,20.257182 11.3949,19.813662 11.94138,19.813662 C12.48786,19.813662 12.93138,20.257182 12.93138,20.803662 L12.93138,23.773662 L15.90138,23.773662 C16.44786,23.773662 16.89138,24.217182 16.89138,24.763662 C16.89138,25.310142 16.44786,25.753662 15.90138,25.753662 L15.90138,25.753662 Z M22.83138,11.893662 L26.79138,11.893662 L26.79138,13.873662 L22.83138,13.873662 L22.83138,11.893662 Z M36.28152,19.403802 C37.02996,18.655362 38.3328,18.655362 39.08124,19.403802 C39.45546,19.778022 39.66138,20.275002 39.66138,20.803662 C39.66138,21.332322 39.45546,21.829302 39.08124,22.203522 C38.70702,22.577742 38.21004,22.783662 37.68138,22.783662 C37.15272,22.783662 36.65574,22.577742 36.28152,22.203522 C35.9073,21.829302 35.70138,21.332322 35.70138,20.803662 C35.70138,20.275002 35.9073,19.778022 36.28152,19.403802 L36.28152,19.403802 Z M39.66138,13.873662 L28.77138,13.873662 L28.77138,10.903662 C28.77138,10.357182 28.32786,9.913662 27.78138,9.913662 L25.80138,9.913662 L25.80138,5.953662 C25.80138,2.678742 23.1363,0.013662 19.86138,0.013662 L10.95138,0.013662 C10.4049,0.013662 9.96138,0.457182 9.96138,1.003662 C9.96138,1.550142 10.4049,1.993662 10.95138,1.993662 L19.86138,1.993662 C22.04532,1.993662 23.82138,3.769722 23.82138,5.953662 L23.82138,9.913662 L21.84138,9.913662 C21.2949,9.913662 20.85138,10.357182 20.85138,10.903662 L20.85138,13.873662 L9.96138,13.873662 C5.049,13.873662 1.05138,17.871282 1.05138,22.783662 L1.05138,42.583662 C1.05138,45.312102 3.27294,47.533662 6.00138,47.533662 C8.60112,47.533662 8.86644,47.056482 11.40084,42.486642 C12.4641,40.570002 14.0481,37.712862 16.46172,33.673662 L33.16104,33.673662 C35.58456,37.734642 37.15866,40.599702 38.214,42.520302 C40.5999,46.866402 40.9662,47.533662 43.62138,47.533662 C46.34982,47.533662 48.57138,45.312102 48.57138,42.583662 L48.57138,22.783662 C48.57138,17.871282 44.57376,13.873662 39.66138,13.873662 L39.66138,13.873662 Z"></path>
                    </g>
                    <g id="Fill-3288" transform="translate(536.000000, 326.000000)">
                        <path d="M27.672625,2.2438875 L27.672625,1.11984583 C27.672625,0.510345833 27.1779583,0.0156791667 26.5684583,0.0156791667 C25.9589583,0.0156791667 25.4642917,0.510345833 25.4642917,1.11984583 L25.4642917,2.2571375 C11.6688333,2.91742917 1.431,13.5991375 1.431,27.6198458 C1.431,28.2293458 1.92345833,28.7240125 2.53516667,28.7240125 L25.4642917,28.7240125 L25.4642917,50.8073458 L19.9434583,50.8073458 C19.3339583,50.8073458 18.8392917,51.3020125 18.8392917,51.9115125 C18.8392917,52.5210125 19.3339583,53.0156792 19.9434583,53.0156792 L33.1934583,53.0156792 C33.8029583,53.0156792 34.297625,52.5210125 34.297625,51.9115125 C34.297625,51.3020125 33.8029583,50.8073458 33.1934583,50.8073458 L27.672625,50.8073458 L27.672625,28.7240125 L29.8809583,28.7240125 L29.8809583,34.2448458 C29.8809583,34.8543458 30.375625,35.3490125 30.985125,35.3490125 C31.594625,35.3490125 32.0892917,34.8543458 32.0892917,34.2448458 L32.0892917,28.7240125 L51.1185,28.7240125 C51.728,28.7240125 52.2226667,28.2293458 52.2226667,27.6198458 C52.2226667,13.4246792 41.7264583,2.6612625 27.672625,2.2438875"></path>
                    </g>
                    <g id="Fill-3424-+-Fill-3425" transform="translate(557.000000, 16.000000)">
                        <path d="M30.1758118,7.532784 C30.1212235,7.532784 30.1193412,7.532784 5.6544,10.352784 C4.12216471,10.324584 2.88169412,9.070624 2.88169412,7.532784 C2.88169412,5.524944 2.88169412,5.359504 11.4576941,4.190144 C15.0209882,3.703224 19.9000471,3.037704 26.5729882,1.879624 C27.0849882,1.789384 27.4275765,1.304344 27.3391059,0.792984 C27.2487529,0.281624 26.7687529,-0.060536 26.2492235,0.025944 C19.6120471,1.180264 14.7518118,1.843904 11.2035765,2.327064 C2.95887059,3.451304 0.999341176,3.718264 0.999341176,7.532784 L0.999341176,38.552784 C0.999341176,43.758504 5.30992941,45.132784 7.58757647,45.132784 C7.62710588,45.132784 7.66663529,45.130904 7.70428235,45.125264 L30.2925176,42.305264 C30.7631059,42.246984 31.1169882,41.846544 31.1169882,41.372784 L31.1169882,8.472784 C31.1169882,7.953904 30.6953412,7.532784 30.1758118,7.532784" id="Fill-3424"></path>
                        <path d="M5.71350588,7.655924 C5.77562353,8.129684 6.18032941,8.473724 6.64527059,8.473724 C6.68668235,8.473724 6.72809412,8.471844 6.76762353,8.466204 L28.4146824,5.646204 C28.9304471,5.580404 29.2937412,5.108524 29.2259765,4.593404 C29.1600941,4.076404 28.6744471,3.707924 28.1718588,3.781244 L6.5248,6.601244 C6.00903529,6.668924 5.64574118,7.140804 5.71350588,7.655924" id="Fill-3425"></path>
                    </g>
                    <g id="Fill-3490" transform="translate(3.000000, 272.000000)">
                        <path d="M19.7645478,14.2994 C19.2289609,13.8517913 18.5498304,13.5724217 17.7997,13.5724217 C17.0495696,13.5724217 16.3688957,13.8517913 15.8333087,14.2994 C15.317787,12.8778565 14.3562,11.6708565 13.110613,10.852813 L17.7997,8.16253043 L22.488787,10.852813 C21.2432,11.6708565 20.2800696,12.8778565 19.7645478,14.2994 M34.0046783,16.2179435 L33.2113304,16.2179435 C32.9813522,12.5938565 29.9684826,9.71372609 26.2888304,9.71372609 C25.5525913,9.71372609 24.8441348,9.83103043 24.1788957,10.0440304 L19.3508957,7.27348696 L26.7102,3.05053043 C27.0652,2.84370435 27.4803957,2.78968261 27.878613,2.89618261 C28.2768304,3.00268261 28.6102217,3.2589 28.8170478,3.61544348 C29.0300478,3.98433478 29.5008087,4.10935652 29.8712435,3.89635652 C30.2401348,3.68335652 30.3667,3.21105217 30.1521565,2.84216087 C29.7400478,2.12907391 29.0748087,1.61818261 28.2783739,1.40518261 C27.4803957,1.19063913 26.6484609,1.30176957 25.9400043,1.71387826 L17.7997,6.3829 L9.66402609,1.71387826 C8.95093913,1.30176957 8.11900435,1.19218261 7.32102609,1.40518261 C6.5245913,1.61818261 5.8578087,2.12907391 5.4457,2.84370435 C5.2327,3.21259565 5.35926522,3.6849 5.72815652,3.89635652 C6.09704783,4.10935652 6.56935217,3.98433478 6.78389565,3.61544348 C6.98917826,3.2589 7.32256957,3.00268261 7.72078696,2.89618261 C8.11746087,2.78968261 8.5342,2.84370435 8.89383043,3.05207391 L16.2485043,7.27348696 L11.4189609,10.0440304 C10.7537217,9.83103043 10.0452652,9.71372609 9.31056957,9.71372609 C5.62937391,9.71372609 2.61650435,12.5938565 2.38652609,16.2179435 L1.59163478,16.2179435 C1.1640913,16.2179435 0.819895652,16.5636826 0.819895652,16.9896826 C0.819895652,17.4156826 1.1640913,17.7614217 1.59163478,17.7614217 L2.46061304,17.7614217 C2.99002609,21.0675522 5.85626522,23.6050304 9.31056957,23.6050304 C13.1399391,23.6050304 16.2562217,20.4887478 16.2562217,16.6593783 C16.2562217,15.8089217 16.9477,15.1159 17.7997,15.1159 C18.6501565,15.1159 19.3431783,15.8089217 19.3431783,16.6593783 C19.3431783,20.4887478 22.4579174,23.6050304 26.2888304,23.6050304 C29.7431348,23.6050304 32.6078304,21.0675522 33.138787,17.7614217 L34.0046783,17.7614217 C34.4306783,17.7614217 34.7764174,17.4156826 34.7764174,16.9896826 C34.7764174,16.5636826 34.4306783,16.2179435 34.0046783,16.2179435"></path>
                    </g>
                    <g id="Fill-3507" transform="translate(511.000000, 94.242372)">
                        <path d="M18.3408311,5.62080919 L17.3042493,4.5842274 L20.3015785,1.58689822 L21.3381603,2.62348001 L18.3408311,5.62080919 Z M18.3408311,11.120052 C17.9787464,11.120052 17.6872486,10.8272471 17.6872486,10.4664696 C17.6872486,10.1043849 17.9787464,9.81288711 18.3408311,9.81288711 C18.7003015,9.81288711 18.9944136,10.1043849 18.9944136,10.4664696 C18.9944136,10.8272471 18.7003015,11.120052 18.3408311,11.120052 L18.3408311,11.120052 Z M18.3408311,13.7343819 C17.9787464,13.7343819 17.6872486,13.441577 17.6872486,13.0807994 C17.6872486,12.7187147 17.9787464,12.427217 18.3408311,12.427217 C18.7003015,12.427217 18.9944136,12.7187147 18.9944136,13.0807994 C18.9944136,13.441577 18.7003015,13.7343819 18.3408311,13.7343819 L18.3408311,13.7343819 Z M18.3408311,16.3487118 C17.9787464,16.3487118 17.6872486,16.0559068 17.6872486,15.6951293 C17.6872486,15.3330446 17.9787464,15.0415468 18.3408311,15.0415468 C18.7003015,15.0415468 18.9944136,15.3330446 18.9944136,15.6951293 C18.9944136,16.0559068 18.7003015,16.3487118 18.3408311,16.3487118 L18.3408311,16.3487118 Z M18.3408311,18.9630416 C17.9787464,18.9630416 17.6872486,18.6702367 17.6872486,18.3094591 C17.6872486,17.9473745 17.9787464,17.6558767 18.3408311,17.6558767 C18.7003015,17.6558767 18.9944136,17.9473745 18.9944136,18.3094591 C18.9944136,18.6702367 18.7003015,18.9630416 18.3408311,18.9630416 L18.3408311,18.9630416 Z M18.3408311,21.5773715 C17.9787464,21.5773715 17.6872486,21.2845665 17.6872486,20.923789 C17.6872486,20.5617043 17.9787464,20.2702065 18.3408311,20.2702065 C18.7003015,20.2702065 18.9944136,20.5617043 18.9944136,20.923789 C18.9944136,21.2845665 18.7003015,21.5773715 18.3408311,21.5773715 L18.3408311,21.5773715 Z M16.3800837,3.6600618 L14.036337,1.31631508 L18.7238304,1.31631508 L16.3800837,3.6600618 Z M14.4193363,5.62080919 L11.4220071,2.62348001 L12.4585889,1.58689822 L15.4559181,4.5842274 L14.4193363,5.62080919 Z M31.8752168,9.35145789 L24.6858097,2.16205079 C24.5629362,2.03917729 24.3969262,1.96989755 24.2230733,1.96989755 L22.532909,1.96989755 L20.7643149,0.201303399 C20.7538576,0.190846079 20.7407859,0.18823175 20.7303286,0.179081595 C20.685885,0.138559482 20.6362127,0.105880359 20.5813118,0.0797370606 C20.5617043,0.0705869061 20.5447112,0.0601295867 20.5237965,0.0522865971 C20.4532096,0.0261432986 20.3800084,0.0091501545 20.3015785,0.0091501545 L12.4585889,0.0091501545 C12.380159,0.0091501545 12.3069578,0.0261432986 12.2363709,0.0522865971 C12.2154563,0.0601295867 12.1984631,0.0705869061 12.1788556,0.0797370606 C12.1239547,0.105880359 12.0742824,0.138559482 12.0298388,0.179081595 C12.0193815,0.18823175 12.0063099,0.190846079 11.9958525,0.201303399 L10.2272584,1.96989755 L8.53709414,1.96989755 C8.36324121,1.96989755 8.19723126,2.03917729 8.07435776,2.16205079 L0.884950656,9.35145789 C0.630053495,9.60635506 0.630053495,10.0194192 0.884950656,10.2756235 L4.80644544,14.1971183 C5.06264977,14.4520154 5.47571388,14.4520154 5.73191821,14.1971183 L8.49657203,12.0442176 L8.49657203,26.8060312 C8.49657203,27.1668087 8.78937698,27.4596136 9.1501545,27.4596136 L15.7265012,27.4596136 L15.7265012,6.54497479 C15.7265012,6.18419727 16.0193062,5.89139233 16.3800837,5.89139233 C16.7408612,5.89139233 17.0336662,6.18419727 17.0336662,6.54497479 L17.0336662,27.4596136 L23.5289687,27.4596136 C23.8897462,27.4596136 24.1825512,27.1668087 24.1825512,26.8060312 L24.1825512,12.0442176 L27.0282492,14.1971183 C27.2844535,14.4520154 27.6975177,14.4520154 27.953722,14.1971183 L31.8752168,10.2756235 C32.1301139,10.0194192 32.1301139,9.60635506 31.8752168,9.35145789 L31.8752168,9.35145789 Z"></path>
                    </g>
                    <g id="Fill-3529" transform="translate(169.562500, 42.000000) rotate(30.000000) translate(-169.562500, -42.000000) translate(130.500000, 17.000000)">
                        <path d="M9.493125,42.2096875 L38.5525,26.9878125 L67.615,42.2096875 L9.493125,42.2096875 Z M73.149375,38.0815625 C73.043125,38.0065625 72.930625,37.9378125 72.815,37.8784375 L42.89625,22.2096875 C46.624375,20.0628125 49.49,15.4253125 49.49,12.5221875 C49.49,6.4909375 44.58375,1.5846875 38.5525,1.5846875 C32.524375,1.5846875 27.615,6.4909375 27.615,12.5221875 C27.615,14.2471875 29.015,15.6471875 30.74,15.6471875 C32.468125,15.6471875 33.865,14.2471875 33.865,12.5221875 C33.865,9.9378125 35.968125,7.8346875 38.5525,7.8346875 C41.136875,7.8346875 43.24,9.9378125 43.249375,12.3846875 C43.111875,13.2128125 41.418125,16.1628125 39.411875,17.0128125 C37.524375,17.8128125 36.299375,19.5846875 35.755625,21.3971875 L4.29,37.8784375 C4.174375,37.9378125 4.065,38.0065625 3.95875,38.0815625 C1.968125,39.4628125 1.174375,41.9253125 1.936875,44.3565625 C2.705625,46.8128125 4.861875,48.4596875 7.3025,48.4596875 L69.8025,48.4596875 C72.243125,48.4596875 74.39625,46.8128125 75.168125,44.3565625 C75.9275,41.9284375 75.136875,39.4628125 73.149375,38.0815625 L73.149375,38.0815625 Z"></path>
                    </g>
                    <g id="Fill-3762" transform="translate(562.500000, 499.109043)">
                        <path d="M29.0271267,18.7377998 L29.0271267,9.48027221 C31.2467404,9.854646 32.9431706,11.7860388 32.9431706,14.109036 C32.9431706,16.4335997 31.2467404,18.3634261 29.0271267,18.7377998 L29.0271267,18.7377998 Z M7.09728121,23.5075412 C7.09728121,23.9414389 6.74640369,24.29075 6.31407245,24.29075 C5.88174121,24.29075 5.53086368,23.9414389 5.53086368,23.5075412 L5.53086368,6.27694835 C5.53086368,5.84461711 5.88174121,5.49373958 6.31407245,5.49373958 C6.74640369,5.49373958 7.09728121,5.84461711 7.09728121,6.27694835 L7.09728121,23.5075412 Z M29.0271267,3.9680489 L29.0271267,0.794486974 C29.0271267,0.362155734 28.6762492,0.0112782063 28.243918,0.0112782063 L1.61481984,0.0112782063 C1.1824886,0.0112782063 0.83161107,0.362155734 0.83161107,0.794486974 L0.83161107,24.29075 C0.83161107,28.1785983 3.99420808,31.3396289 7.88048998,31.3396289 L21.9782478,31.3396289 C25.8660961,31.3396289 29.0271267,28.1785983 29.0271267,24.29075 L29.0271267,24.2515896 C34.2761919,23.8490203 38.4256319,19.4583519 38.4256319,14.109036 C38.4256319,8.75972014 34.2761919,4.36905179 29.0271267,3.9680489 L29.0271267,3.9680489 Z"></path>
                    </g>
                    <g id="Fill-4013-+-Fill-4014" transform="translate(275.000000, 498.216427)">
                        <path d="M19.046968,4.571096 C18.209448,4.571096 17.526968,3.888616 17.526968,3.051096 C17.526968,2.213576 18.209448,1.531096 19.046968,1.531096 C19.884488,1.531096 20.566968,2.213576 20.566968,3.051096 C20.566968,3.888616 19.884488,4.571096 19.046968,4.571096 M21.507848,4.821896 C21.868088,4.321816 22.086968,3.713816 22.086968,3.051096 C22.086968,1.374536 20.723528,0.011096 19.046968,0.011096 C17.370408,0.011096 16.006968,1.374536 16.006968,3.051096 C16.006968,3.713816 16.225848,4.321816 16.586088,4.821896 C13.769528,5.404056 11.310168,6.966616 9.569768,9.131096 L28.524168,9.131096 C26.785288,6.966616 24.324408,5.404056 21.507848,4.821896" id="Fill-4013"></path>
                        <path d="M31.966968,19.011096 C31.640168,19.011096 31.324008,18.954856 31.012408,18.872776 C31.137048,18.172056 31.206968,17.456136 31.206968,16.731096 C31.206968,14.999816 30.837608,13.353656 30.182488,11.861016 C30.728168,11.566136 31.334648,11.411096 31.966968,11.411096 C34.061528,11.411096 35.766968,13.116536 35.766968,15.211096 C35.766968,17.305656 34.061528,19.011096 31.966968,19.011096 M31.966968,9.891096 C31.086888,9.891096 30.240248,10.103896 29.477208,10.512776 C29.465048,10.491496 29.451368,10.468696 29.437688,10.447416 C29.302408,10.570536 29.124568,10.651096 28.926968,10.651096 L8.533128,10.651096 C7.624168,12.215176 7.058728,13.996616 6.929528,15.898136 C5.176968,15.560696 3.846968,14.020936 3.846968,12.171096 L3.846968,9.891096 C3.846968,8.634056 2.824008,7.611096 1.566968,7.611096 C1.147448,7.611096 0.806968,7.951576 0.806968,8.371096 C0.806968,8.790616 1.147448,9.131096 1.566968,9.131096 C1.986488,9.131096 2.326968,9.471576 2.326968,9.891096 L2.326968,12.171096 C2.326968,14.855416 4.327288,17.076136 6.915848,17.434856 C7.052648,19.822776 7.878008,22.090616 9.337208,24.028616 C9.481608,24.218616 9.705048,24.331096 9.943688,24.331096 L28.153288,24.331096 C28.391928,24.331096 28.616888,24.218616 28.759768,24.027096 C29.606408,22.902296 30.235688,21.663496 30.646088,20.356296 C31.076248,20.467256 31.517048,20.531096 31.966968,20.531096 C34.900568,20.531096 37.286968,18.144696 37.286968,15.211096 C37.286968,12.277496 34.900568,9.891096 31.966968,9.891096" id="Fill-4014"></path>
                    </g>
                    <g id="Fill-4935-+-Fill-4936-+-Fill-4937" transform="translate(527.540000, 181.000000)">
                        <path d="M17.536856,38.653984 C11.448296,38.653984 6.496856,33.700704 6.496856,27.613984 C6.496856,21.527264 11.448296,16.573984 17.536856,16.573984 C23.625416,16.573984 28.576856,21.527264 28.576856,27.613984 C28.576856,33.700704 23.625416,38.653984 17.536856,38.653984 M23.531576,12.192944 L21.991496,14.347584 C21.820376,14.590464 21.540696,14.733984 21.244456,14.733984 L13.829256,14.733984 C13.533016,14.733984 13.253336,14.590464 13.082216,14.347584 L11.542136,12.192944 C5.368936,14.601504 0.976856,20.598064 0.976856,27.613984 C0.976856,36.744064 8.406776,44.173984 17.536856,44.173984 C26.666936,44.173984 34.096856,36.744064 34.096856,27.613984 C34.096856,20.598064 29.704776,14.601504 23.531576,12.192944" id="Fill-4935"></path>
                        <path d="M9.703424,5.52 L13.381584,11.6012 L14.303424,12.89288 L14.776304,12.89288 L20.296304,12.89288 L20.771024,12.89288 L21.692864,11.6012 L25.371024,5.52 L9.703424,5.52 Z" id="Fill-4936"></path>
                        <path d="M22.925664,0.459632 C22.760064,0.181792 22.460144,0.012512 22.136304,0.012512 L12.936304,0.012512 C12.614304,0.012512 12.314384,0.181792 12.148784,0.459632 L9.655584,3.679632 L25.417024,3.679632 L22.925664,0.459632 Z" id="Fill-4937"></path>
                    </g>
                    <g id="Fill-4623-+-Fill-4624-+-Fill-4625" transform="translate(287.000000, 15.000000)">
                        <path d="M21.0308,0.5071 L4.0308,0.5071 C3.6358,0.5071 3.2568,0.5761 2.9018,0.6971 C4.1888,0.9841 7.1548,1.7031 14.2398,3.5071 L20.0308,3.5071 C20.3068,3.5071 20.5308,3.7311 20.5308,4.0071 C20.5308,4.2831 20.3068,4.5071 20.0308,4.5071 L17.0158,4.5071 C18.3628,5.3961 19.3308,6.9081 19.5018,8.5071 L20.0308,8.5071 C20.3068,8.5071 20.5308,8.7311 20.5308,9.0071 C20.5308,9.2831 20.3068,9.5071 20.0308,9.5071 L19.5308,9.5071 L19.5308,18.5071 L21.0308,18.5071 C22.9608,18.5071 24.5308,16.9371 24.5308,15.0071 L24.5308,4.0071 C24.5308,2.0771 22.9608,0.5071 21.0308,0.5071" id="Fill-4623"></path>
                        <path d="M13.5308,12.5071 C12.7038,12.5071 12.0308,13.1801 12.0308,14.0071 C12.0308,14.8341 12.7038,15.5071 13.5308,15.5071 C14.3578,15.5071 15.0308,14.8341 15.0308,14.0071 C15.0308,13.1801 14.3578,12.5071 13.5308,12.5071" id="Fill-4624"></path>
                        <path d="M13.5308,16.5071 C12.1528,16.5071 11.0308,15.3851 11.0308,14.0071 C11.0308,12.6291 12.1528,11.5071 13.5308,11.5071 C14.9088,11.5071 16.0308,12.6291 16.0308,14.0071 C16.0308,15.3851 14.9088,16.5071 13.5308,16.5071 L13.5308,16.5071 Z M18.4938,8.5071 C18.2698,6.7911 16.9258,5.2161 15.2468,4.7961 C14.8578,4.6961 14.4818,4.6011 14.1148,4.5071 L14.1148,4.5071 C12.9698,4.2151 11.5878,3.8651 10.1688,3.5071 L10.1708,3.5071 C3.3978,1.7991 2.0038,1.5071 1.8428,1.5071 C1.5498,1.5071 1.2748,1.6271 1.0678,1.8451 C1.0018,1.9141 0.9468,1.9941 0.8958,2.0781 C0.8748,2.1141 0.8558,2.1531 0.8358,2.1911 C0.8108,2.2411 0.7868,2.2911 0.7658,2.3441 C0.7458,2.3931 0.7268,2.4431 0.7098,2.4941 C0.6948,2.5401 0.6808,2.5871 0.6678,2.6341 C0.6528,2.6881 0.6378,2.7431 0.6258,2.7991 C0.6138,2.8511 0.6048,2.9031 0.5958,2.9551 C0.5878,3.0041 0.5778,3.0521 0.5708,3.1011 C0.5618,3.1721 0.5548,3.2401 0.5488,3.3071 C0.5458,3.3371 0.5418,3.3671 0.5398,3.3971 C0.5348,3.4591 0.5338,3.5151 0.5308,3.5711 C0.5298,3.6091 0.5278,3.6471 0.5268,3.6841 C0.5258,3.7241 0.5268,3.7571 0.5268,3.7911 C0.5268,3.8541 0.5278,3.9161 0.5298,3.9761 C0.5298,3.9851 0.5308,4.0001 0.5308,4.0071 L0.5308,17.0071 C0.5308,18.8801 2.0138,20.7521 3.8368,21.1811 L14.9958,23.8071 C15.2528,23.8671 15.5098,23.8981 15.7588,23.8981 C17.3388,23.8981 18.5308,22.6551 18.5308,21.0071 L18.5308,9.0071 C18.5308,8.8401 18.5148,8.6731 18.4928,8.5071 L18.4938,8.5071 Z" id="Fill-4625"></path>
                    </g>
                    <g id="Fill-2502-+-Fill-2503" transform="translate(38.500000, 47.500000) rotate(-30.000000) translate(-38.500000, -47.500000) translate(8.000000, 25.000000)">
                        <path d="M49.1450032,29.8068539 L46.6300909,29.8068539 C45.9359751,29.8068539 45.3726347,29.2507975 45.3726347,28.5656567 C45.3726347,27.8780335 45.9359751,27.3244595 46.6300909,27.3244595 L49.1450032,27.3244595 C49.8391189,27.3244595 50.4024593,27.8780335 50.4024593,28.5656567 C50.4024593,29.2507975 49.8391189,29.8068539 49.1450032,29.8068539 L49.1450032,29.8068539 Z M45.3726347,33.5304454 C45.3726347,34.2155863 44.8092944,34.7716426 44.1151786,34.7716426 C43.4210628,34.7716426 42.8577225,34.2155863 42.8577225,33.5304454 L42.8577225,31.0480511 C42.8577225,30.3604278 43.4210628,29.8068539 44.1151786,29.8068539 C44.8092944,29.8068539 45.3726347,30.3604278 45.3726347,31.0480511 L45.3726347,33.5304454 Z M41.6002663,29.8068539 L39.085354,29.8068539 C38.3912382,29.8068539 37.8278979,29.2507975 37.8278979,28.5656567 C37.8278979,27.8780335 38.3912382,27.3244595 39.085354,27.3244595 L41.6002663,27.3244595 C42.2943821,27.3244595 42.8577225,27.8780335 42.8577225,28.5656567 C42.8577225,29.2507975 42.2943821,29.8068539 41.6002663,29.8068539 L41.6002663,29.8068539 Z M42.8577225,23.600868 C42.8577225,22.9132447 43.4210628,22.3596708 44.1151786,22.3596708 C44.8092944,22.3596708 45.3726347,22.9132447 45.3726347,23.600868 L45.3726347,26.0832623 C45.3726347,26.7684032 44.8092944,27.3244595 44.1151786,27.3244595 C43.4210628,27.3244595 42.8577225,26.7684032 42.8577225,26.0832623 L42.8577225,23.600868 Z M44.1151786,19.8772764 C39.2613979,19.8772764 35.3129856,23.7746356 35.3129856,28.5656567 C35.3129856,33.3566778 39.2613979,37.254037 44.1151786,37.254037 C48.9689593,37.254037 52.9173716,33.3566778 52.9173716,28.5656567 C52.9173716,23.7746356 48.9689593,19.8772764 44.1151786,19.8772764 L44.1151786,19.8772764 Z" id="Fill-2502"></path>
                        <path d="M44.1151786,39.7364313 C37.8756812,39.7364313 32.7980733,34.7244771 32.7980733,28.5656567 C32.7980733,22.4043539 37.8756812,17.394882 44.1151786,17.394882 C50.354676,17.394882 55.4322839,22.4043539 55.4322839,28.5656567 C55.4322839,34.7244771 50.354676,39.7364313 44.1151786,39.7364313 L44.1151786,39.7364313 Z M30.2831611,36.0128398 C30.2831611,38.0657799 28.5906251,39.7364313 26.5107926,39.7364313 L8.90640667,39.7364313 C6.82657421,39.7364313 5.13403825,38.0657799 5.13403825,36.0128398 L5.13403825,21.1184736 C5.13403825,19.0655335 6.82657421,17.394882 8.90640667,17.394882 L26.5107926,17.394882 C28.5906251,17.394882 30.2831611,19.0655335 30.2831611,21.1184736 L30.2831611,36.0128398 Z M10.1638628,12.4300933 C10.8579786,12.4300933 11.4213189,12.9836673 11.4213189,13.6712905 C11.4213189,14.3564313 10.8579786,14.9124877 10.1638628,14.9124877 C9.46723211,14.9124877 8.90640667,14.3564313 8.90640667,13.6712905 C8.90640667,12.9836673 9.46723211,12.4300933 10.1638628,12.4300933 L10.1638628,12.4300933 Z M15.1936874,12.4300933 C15.8878032,12.4300933 16.4511435,12.9836673 16.4511435,13.6712905 C16.4511435,14.3564313 15.8878032,14.9124877 15.1936874,14.9124877 C14.4970567,14.9124877 13.9362312,14.3564313 13.9362312,13.6712905 C13.9362312,12.9836673 14.4970567,12.4300933 15.1936874,12.4300933 L15.1936874,12.4300933 Z M20.2235119,12.4300933 C20.9176277,12.4300933 21.4809681,12.9836673 21.4809681,13.6712905 C21.4809681,14.3564313 20.9176277,14.9124877 20.2235119,14.9124877 C19.5268812,14.9124877 18.9660558,14.3564313 18.9660558,13.6712905 C18.9660558,12.9836673 19.5268812,12.4300933 20.2235119,12.4300933 L20.2235119,12.4300933 Z M54.0339926,7.46530458 L49.9221111,7.46530458 L47.7542567,3.18565669 L47.6762944,3.05160739 C46.3534505,1.09548063 44.6433102,0.0181214789 42.8577225,0.0181214789 L30.2831611,0.0181214789 C28.4975733,0.0181214789 26.787433,1.09548063 25.5048277,2.99699472 L22.1096961,7.46530458 L15.1936874,7.46530458 L15.1936874,6.22410739 C15.1936874,4.17116725 13.5011514,2.50051585 11.4213189,2.50051585 L8.90640667,2.50051585 C6.82657421,2.50051585 5.13403825,4.17116725 5.13403825,6.22410739 L5.13403825,7.53977641 C1.02467158,7.99157218 0.104213684,10.6849701 0.104213684,12.9811849 L0.104213684,38.7707799 C0.104213684,42.5390546 2.44559702,44.7012201 6.53232947,44.7012201 L54.0339926,44.7012201 C58.1207251,44.7012201 60.4621084,42.5390546 60.4621084,38.7707799 L60.4621084,12.9811849 C60.4621084,10.464037 59.3480023,7.46530458 54.0339926,7.46530458 L54.0339926,7.46530458 Z" id="Fill-2503"></path>
                    </g>
                </g>
            </g>
        </g>
    </g>
</svg>