<?xml version="1.0" encoding="UTF-8" standalone="no"?>
<svg width="36px" height="36px" viewBox="0 0 36 36" version="1.1" xmlns="http://www.w3.org/2000/svg" xmlns:xlink="http://www.w3.org/1999/xlink" xmlns:sketch="http://www.bohemiancoding.com/sketch/ns">
    <!-- Generator: Sketch 3.3.2 (12043) - http://www.bohemiancoding.com/sketch -->
    <title>Btn_Decrease@1x</title>
    <desc>Created with Sketch.</desc>
    <defs></defs>
    <g id="Page-1" stroke="none" stroke-width="1" fill="none" fill-rule="evenodd" sketch:type="MSPage">
        <g id="Bag-items-Copy-2" sketch:type="MSArtboardGroup" transform="translate(-458.000000, -486.000000)" fill="#F3B453">
            <path d="M476,486 C466.073818,486 458,494.073818 458,504 C458,513.926182 466.073818,522 476,522 C485.926182,522 494,513.926182 494,504 C494,494.073818 485.926182,486 476,486 Z M477.636364,505.636364 L474.363636,505.636364 L472.727273,505.636364 L467.821455,505.636364 C466.918182,505.636364 466.185091,504.903273 466.185091,504 C466.185091,503.096727 466.918182,502.363636 467.821455,502.363636 L471.414909,502.363636 L474.363636,502.363636 L477.636364,502.363636 L484.185091,502.363636 C485.088364,502.363636 485.821455,503.096727 485.821455,504 C485.821455,504.903273 485.088364,505.636364 484.185091,505.636364 L477.636364,505.636364 Z" id="Btn_Decrease" sketch:type="MSShapeGroup"></path>
        </g>
    </g>
</svg>