<?xml version="1.0" encoding="UTF-8" standalone="no"?>
<svg width="36px" height="36px" viewBox="0 0 36 36" version="1.1" xmlns="http://www.w3.org/2000/svg" xmlns:xlink="http://www.w3.org/1999/xlink" xmlns:sketch="http://www.bohemiancoding.com/sketch/ns">
    <!-- Generator: Sketch 3.3.2 (12043) - http://www.bohemiancoding.com/sketch -->
    <title>Btn_Increase@1x</title>
    <desc>Created with Sketch.</desc>
    <defs></defs>
    <g id="Page-1" stroke="none" stroke-width="1" fill="none" fill-rule="evenodd" sketch:type="MSPage">
        <g id="Bag-items-Copy-2" sketch:type="MSArtboardGroup" transform="translate(-584.000000, -486.000000)" fill="#F3B453">
            <path d="M602,486 C592.073818,486 584,494.073818 584,504 C584,513.926182 592.073818,522 602,522 C611.926182,522 620,513.926182 620,504 C620,494.073818 611.926182,486 602,486 Z M610.185091,505.636364 L603.636364,505.636364 L603.636364,512.181818 C603.636364,513.085091 602.903273,513.818182 602,513.818182 C601.096727,513.818182 600.363636,513.085091 600.363636,512.181818 L600.363636,505.636364 L598.727273,505.636364 L593.821455,505.636364 C592.918182,505.636364 592.185091,504.903273 592.185091,504 C592.185091,503.096727 592.918182,502.363636 593.821455,502.363636 L597.414909,502.363636 L600.363636,502.363636 L600.363636,495.818182 C600.363636,494.914909 601.096727,494.181818 602,494.181818 C602.903273,494.181818 603.636364,494.914909 603.636364,495.818182 L603.636364,502.363636 L610.185091,502.363636 C611.088364,502.363636 611.821455,503.096727 611.821455,504 C611.821455,504.903273 611.088364,505.636364 610.185091,505.636364 Z" id="Btn_Increase" sketch:type="MSShapeGroup"></path>
        </g>
    </g>
</svg>