<?xml version="1.0" encoding="UTF-8" standalone="no"?>
<svg width="32px" height="32px" viewBox="0 0 32 32" version="1.1" xmlns="http://www.w3.org/2000/svg" xmlns:xlink="http://www.w3.org/1999/xlink" xmlns:sketch="http://www.bohemiancoding.com/sketch/ns">
    <!-- Generator: Sketch 3.3.2 (12043) - http://www.bohemiancoding.com/sketch -->
    <title>icon-edit@1x</title>
    <desc>Created with Sketch.</desc>
    <defs></defs>
    <g id="Page-1" stroke="none" stroke-width="1" fill="none" fill-rule="evenodd" sketch:type="MSPage">
        <g id="Bag-items-Copy-2" sketch:type="MSArtboardGroup" transform="translate(-561.000000, -126.000000)" fill="#999999">
            <path d="M572.786,149.02 L567.414,152.273 C566.925,152.501 566.485,152.029 566.713,151.571 L569.965,146.195 L572.786,149.02 L572.786,149.02 Z M582.239,133.222 L585.776,136.712 L574.536,147.959 C573.22,146.641 571.397,144.817 571.024,144.444 L582.239,133.222 L582.239,133.222 Z M585.776,129.683 C586.164,129.294 586.793,129.294 587.182,129.683 L589.289,131.791 C589.677,132.18 589.677,132.809 589.289,133.197 L587.182,135.306 L583.719,131.74 L585.776,129.683 L585.776,129.683 Z M569.11,144.068 L564.81,152.773 C564.449,153.754 565.233,154.632 566.213,154.177 L574.912,149.874 C575.287,149.801 575.651,149.655 575.941,149.365 L591.396,133.899 C592.172,133.124 592.172,131.864 591.396,131.088 L587.884,127.573 C587.107,126.797 585.85,126.797 585.074,127.573 L569.619,143.038 C569.328,143.329 569.184,143.693 569.11,144.068 L569.11,144.068 Z M591,138 L591,154 C591,155.099 589.914,156.012 588.817,156.012 L564.974,156.012 C563.877,156.012 562.987,155.122 562.987,154.023 L562.987,130.165 C562.987,129.066 563.902,128 565,128 L581,128 L581,126 L565,126 C562.806,126 561,127.969 561,130.165 L561,154.023 C561,156.22 562.779,158 564.974,158 L588.817,158 C591.012,158 593,156.196 593,154 L593,138 L591,138 L591,138 Z" id="icon-edit" sketch:type="MSShapeGroup"></path>
        </g>
    </g>
</svg>